{
	"asset":{
		"generator":"Khronos glTF Blender I/O v4.3.47",
		"version":"2.0"
	},
	"scene":0,
	"scenes":[
		{
			"name":"Scene",
			"nodes":[
				0,
				1,
				2
			]
		}
	],
	"nodes":[
		{
			"mesh":0,
			"name":"A",
			"rotation":[
				0.7069608569145203,
				0,
				0,
				0.7072526812553406
			],
			"scale":[
				277.86798095703125,
				277.8680419921875,
				277.8680419921875
			],
			"translation":[
				-0.19781970977783203,
				3.4680492877960205,
				-2.218017101287842
			]
		},
		{
			"mesh":1,
			"name":"J",
			"rotation":[
				0.7069608569145203,
				0,
				0,
				0.7072526812553406
			],
			"scale":[
				277.86798095703125,
				277.8680419921875,
				277.8680419921875
			],
			"translation":[
				-6.06917667388916,
				3.57118558883667,
				-2.218059539794922
			]
		},
		{
			"mesh":2,
			"name":"M",
			"rotation":[
				0.7069608569145203,
				0,
				0,
				0.7072526812553406
			],
			"scale":[
				277.86798095703125,
				277.8680419921875,
				277.8680419921875
			],
			"translation":[
				6.21146297454834,
				4.09816837310791,
				-2.2182772159576416
			]
		}
	],
	"meshes":[
		{
			"name":"Curve A.001",
			"primitives":[
				{
					"attributes":{
						"POSITION":0,
						"NORMAL":1
					},
					"indices":2
				}
			]
		},
		{
			"name":"Curve J.001",
			"primitives":[
				{
					"attributes":{
						"POSITION":3,
						"NORMAL":4
					},
					"indices":5
				}
			]
		},
		{
			"name":"Curve M.001",
			"primitives":[
				{
					"attributes":{
						"POSITION":6,
						"NORMAL":7
					},
					"indices":8
				}
			]
		}
	],
	"accessors":[
		{
			"bufferView":0,
			"componentType":5126,
			"count":12,
			"max":[
				0.007267367094755173,
				0.0024999999441206455,
				0.004583355039358139
			],
			"min":[
				-0.007261727005243301,
				-0.0024999999441206455,
				-0.009166710078716278
			],
			"type":"VEC3"
		},
		{
			"bufferView":1,
			"componentType":5126,
			"count":12,
			"type":"VEC3"
		},
		{
			"bufferView":2,
			"componentType":5123,
			"count":24,
			"type":"SCALAR"
		},
		{
			"bufferView":3,
			"componentType":5126,
			"count":104,
			"max":[
				0.005454579368233681,
				0.0024999999441206455,
				0.005453463178128004
			],
			"min":[
				-0.00927426852285862,
				-0.0024999999441206455,
				-0.00927240401506424
			],
			"type":"VEC3"
		},
		{
			"bufferView":4,
			"componentType":5126,
			"count":104,
			"type":"VEC3"
		},
		{
			"bufferView":5,
			"componentType":5123,
			"count":300,
			"type":"SCALAR"
		},
		{
			"bufferView":6,
			"componentType":5126,
			"count":20,
			"max":[
				0.0070957764983177185,
				0.0024999999441206455,
				0.006851046811789274
			],
			"min":[
				-0.00714544951915741,
				-0.0024999999441206455,
				-0.006899017840623856
			],
			"type":"VEC3"
		},
		{
			"bufferView":7,
			"componentType":5126,
			"count":20,
			"type":"VEC3"
		},
		{
			"bufferView":8,
			"componentType":5123,
			"count":48,
			"type":"SCALAR"
		}
	],
	"bufferViews":[
		{
			"buffer":0,
			"byteLength":144,
			"byteOffset":0,
			"target":34962
		},
		{
			"buffer":0,
			"byteLength":144,
			"byteOffset":144,
			"target":34962
		},
		{
			"buffer":0,
			"byteLength":48,
			"byteOffset":288,
			"target":34963
		},
		{
			"buffer":0,
			"byteLength":1248,
			"byteOffset":336,
			"target":34962
		},
		{
			"buffer":0,
			"byteLength":1248,
			"byteOffset":1584,
			"target":34962
		},
		{
			"buffer":0,
			"byteLength":600,
			"byteOffset":2832,
			"target":34963
		},
		{
			"buffer":0,
			"byteLength":240,
			"byteOffset":3432,
			"target":34962
		},
		{
			"buffer":0,
			"byteLength":240,
			"byteOffset":3672,
			"target":34962
		},
		{
			"buffer":0,
			"byteLength":96,
			"byteOffset":3912,
			"target":34963
		}
	],
	"buffers":[
		{
			"byteLength":4008,
			"uri": "data:application/octet-stream;base64,"
		}
	]
}
